<svg width="26" height="26" viewBox="0 0 26 26" fill="none" xmlns="http://www.w3.org/2000/svg">
<path d="M2.67504 2.67504C2.89383 2.45625 3.19058 2.33333 3.5 2.33333H14C14.3094 2.33333 14.6062 2.45625 14.825 2.67504C15.0438 2.89383 15.1667 3.19058 15.1667 3.5V4.66667C15.1667 5.311 15.689 5.83333 16.3333 5.83333C16.9777 5.83333 17.5 5.311 17.5 4.66667V3.5C17.5 2.57174 17.1313 1.6815 16.4749 1.02513C15.8185 0.368749 14.9283 0 14 0H3.5C2.57174 0 1.6815 0.368749 1.02513 1.02513C0.368749 1.6815 0 2.57174 0 3.5V14C0 14.9283 0.368749 15.8185 1.02513 16.4749C1.6815 17.1313 2.57174 17.5 3.5 17.5H4.66667C5.311 17.5 5.83333 16.9777 5.83333 16.3333C5.83333 15.689 5.311 15.1667 4.66667 15.1667H3.5C3.19058 15.1667 2.89383 15.0438 2.67504 14.825C2.45625 14.6062 2.33333 14.3094 2.33333 14V3.5C2.33333 3.19058 2.45625 2.89383 2.67504 2.67504Z" fill="white"/>
<path fill-rule="evenodd" clip-rule="evenodd" d="M11.6667 8.16667C9.73367 8.16667 8.16667 9.73367 8.16667 11.6667V22.1667C8.16667 24.0997 9.73367 25.6667 11.6667 25.6667H22.1667C24.0997 25.6667 25.6667 24.0997 25.6667 22.1667V11.6667C25.6667 9.73367 24.0997 8.16667 22.1667 8.16667H11.6667ZM10.5 11.6667C10.5 11.0223 11.0223 10.5 11.6667 10.5H22.1667C22.811 10.5 23.3333 11.0223 23.3333 11.6667V22.1667C23.3333 22.811 22.811 23.3333 22.1667 23.3333H11.6667C11.0223 23.3333 10.5 22.811 10.5 22.1667V11.6667Z" fill="white"/>
</svg>
