<svg width="64" height="41" viewBox="0 0 64 41" fill="none" xmlns="http://www.w3.org/2000/svg">
<path fill-rule="evenodd" clip-rule="evenodd" d="M31.9172 38.2575C38.2773 34.7129 42.5563 28.0879 42.5563 20.5C42.5563 12.9121 38.2773 6.28708 31.9172 2.74254C35.047 0.998292 38.6806 0 42.5563 0C54.3079 0 63.8344 9.17816 63.8344 20.5C63.8344 31.8218 54.3079 41 42.5563 41C38.6806 41 35.047 40.0017 31.9172 38.2575ZM31.9172 38.2575C28.7875 40.0017 25.1538 41 21.2781 41C9.52655 41 0 31.8218 0 20.5C0 9.17816 9.52655 0 21.2781 0C25.1538 0 28.7875 0.998292 31.9172 2.74254C25.5572 6.28708 21.2781 12.9121 21.2781 20.5C21.2781 28.0879 25.5572 34.7129 31.9172 38.2575Z" fill="white"/>
</svg>
