<svg width="27" height="28" viewBox="0 0 27 28" fill="none" xmlns="http://www.w3.org/2000/svg">
<path d="M1.41568 14.825C0.988066 14.3693 0.988066 13.6307 1.41568 13.175L5.79561 8.50838C6.22323 8.05276 6.91653 8.05276 7.34415 8.50838C7.77177 8.96399 7.77177 9.70268 7.34415 10.1583L4.83347 12.8333L16.4247 12.8333C17.0295 12.8333 17.5197 13.3557 17.5197 14C17.5197 14.6443 17.0295 15.1667 16.4247 15.1667L4.83347 15.1667L7.34415 17.8417C7.77177 18.2973 7.77177 19.036 7.34415 19.4916C6.91653 19.9472 6.22323 19.9472 5.79561 19.4916L1.41568 14.825Z" fill="white"/>
<path d="M12.0448 23.3333C12.0448 22.689 12.535 22.1667 13.1398 22.1667H21.8996C22.19 22.1667 22.4686 22.0438 22.6739 21.825C22.8792 21.6062 22.9946 21.3094 22.9946 21V7C22.9946 6.69058 22.8792 6.39384 22.6739 6.17504C22.4686 5.95625 22.19 5.83333 21.8996 5.83333H13.1398C12.535 5.83333 12.0448 5.311 12.0448 4.66667C12.0448 4.02233 12.535 3.5 13.1398 3.5H21.8996C22.7709 3.5 23.6064 3.86875 24.2224 4.52512C24.8385 5.1815 25.1846 6.07174 25.1846 7V21C25.1846 21.9283 24.8385 22.8185 24.2224 23.4749C23.6064 24.1313 22.7709 24.5 21.8996 24.5H13.1398C12.535 24.5 12.0448 23.9777 12.0448 23.3333Z" fill="white"/>
</svg>
