<svg width="28" height="19" viewBox="0 0 28 19" fill="none" xmlns="http://www.w3.org/2000/svg">
<path fill-rule="evenodd" clip-rule="evenodd" d="M19.8333 7.06628V3.5C19.8333 1.567 18.2663 0 16.3333 0H3.5C1.567 0 0 1.567 0 3.5V15.1667C0 17.0997 1.567 18.6667 3.5 18.6667H16.3333C18.2663 18.6667 19.8333 17.0997 19.8333 15.1667V11.6004L26.1552 16.116C26.5108 16.37 26.9786 16.404 27.3672 16.204C27.7558 16.0041 28 15.6037 28 15.1667V3.5C28 3.06298 27.7558 2.66261 27.3672 2.46264C26.9786 2.26267 26.5108 2.29663 26.1552 2.55064L19.8333 7.06628ZM2.33333 3.5C2.33333 2.85567 2.85567 2.33333 3.5 2.33333H16.3333C16.9777 2.33333 17.5 2.85567 17.5 3.5V15.1667C17.5 15.811 16.9777 16.3333 16.3333 16.3333H3.5C2.85567 16.3333 2.33333 15.811 2.33333 15.1667V3.5ZM25.6667 12.8996L20.6739 9.33333L25.6667 5.76706V12.8996Z" fill="#7F56D9"/>
</svg>
